
        <svg xmlns="http://www.w3.org/2000/svg" xmlns:xlink="http://www.w3.org/1999/xlink" version="1.1" width="3162.2002820874472" height="757.9848788273844" viewBox="0 0 3162.2002820874472 757.9848788273844">
			
			<g transform="scale(8.110014104372356) translate(10, 10)">
				<defs id="SvgjsDefs1490"/><g id="SvgjsG1491" featureKey="symbolFeature-0" transform="matrix(0.6982821785328736,0,0,0.6982821785328736,-11.780020937871303,-12.907746496377786)" fill="#000"><g xmlns="http://www.w3.org/2000/svg"><path d="M103.89,79.865c-3.207,0-6.247,0.675-8.986,1.921l-3.463-6.39h25.565c0.603,0,1.091-0.488,1.091-1.091   c0-0.606-0.488-1.091-1.091-1.091H90.273l-1.303-2.409l0.191-0.66l2.445-2.401c0.342-0.334,0.619-0.7,0.847-1.099   c1.632-2.531,1.665-5.901-0.179-8.522L78.666,38.804c-2.434-3.439-7.188-4.261-10.63-1.835c-0.269,0.195-0.513,0.399-0.753,0.606   c-0.289,0.208-0.558,0.448-0.806,0.716l-17.789,19.71c-1.771,1.954-1.729,4.917,0.024,6.829l-3.15,0.016   c-0.859,0-1.551,0.436-1.551,1.291c0,0.862,0.696,1.294,1.559,1.286l5.059-0.016l-0.606,3.118c-0.004,0-0.004,0.154-0.004,0.154   l-0.964,4.534l-2.666,10.866V70.895c0-0.83-0.672-1.494-1.502-1.494c-0.822,0-1.489,0.664-1.489,1.494v16.202H19.955   c-0.017,0-0.037,0-0.057,0.008c-0.411-0.008-0.814,0.151-1.111,0.484c-0.557,0.61-0.504,1.555,0.106,2.112l10.712,9.649   c-1.645,2.467-2.609,5.438-2.609,8.612c0,8.587,6.988,15.574,15.579,15.574c8.587,0,15.579-6.991,15.579-15.574   c0-6.797-4.383-12.592-10.472-14.709l3.508-14.659l17.154,17.704l2.523,8.204c0.684,2.202,2.723,3.614,4.916,3.586   c0.477,0,0.957-0.073,1.441-0.229c1.44-0.431,2.527-1.456,3.113-2.727l1.908-0.143c1.559,10.59,10.708,18.726,21.725,18.701   c12.075-0.024,21.888-9.873,21.863-21.961C125.814,89.656,115.973,79.841,103.89,79.865z M54.617,107.967   c0,6.642-5.401,12.046-12.042,12.046c-6.642,0-12.042-5.404-12.042-12.046c0-2.271,0.631-4.399,1.734-6.211l8.624,7.773   c0.155,0.424,0.484,0.773,0.944,0.937c0.171,0.057,0.342,0.085,0.513,0.085c0.639,0,1.241-0.402,1.461-1.042l3.061-12.795   C51.39,98.439,54.617,102.835,54.617,107.967z M41.476,106.029l-7.362-6.63c2.177-2.148,5.165-3.476,8.457-3.476   c0.464,0,0.919,0.029,1.367,0.078L41.476,106.029z M42.575,92.384c-4.334,0-8.258,1.782-11.082,4.647l-7.708-6.943h21.098   c0.191,0,0.37-0.053,0.537-0.105l-0.627,2.563C44.069,92.44,43.328,92.384,42.575,92.384z M54.072,66.337   c0.004-0.041,0.008-0.073,0.016-0.114c0.806-0.273,1.547-0.741,2.153-1.408l12.4-13.74l10.403,14.749l-2.878,2.824l-22.697,0.045   L54.072,66.337z M65.838,78.77c-1.355,1.33-1.86,3.312-1.302,5.123l1.766,5.738L52.245,75.217l0.545-2.661l19.424-0.032   L65.838,78.77z M78.629,95.118L75.17,83.861l9.442-9.255L78.629,95.118z M82.207,101.833c0,0.029,0,0.054,0,0.069l-1.486,0.11   c-0.036-0.159-0.077-0.33-0.126-0.492l-0.235-0.77l7.423-25.628l4.501,8.197C86.175,87.222,82.19,94.064,82.207,101.833z    M93.899,86.507l7.524,13.919l-15.778,1.204C85.698,95.313,88.967,89.754,93.899,86.507z M103.968,120.086   c-9.108,0.017-16.687-6.653-18.095-15.363l18.172-1.384c0.521-0.032,0.993-0.342,1.241-0.797c0.257-0.469,0.257-1.021,0.004-1.478   l-8.664-16.035c2.222-0.969,4.685-1.522,7.265-1.522c10.093-0.024,18.306,8.173,18.326,18.258   C122.232,111.849,114.049,120.066,103.968,120.086z"/><circle cx="62.838" cy="26.62" r="8.135"/><rect x="16.87" y="60.346" width="23.23" height="23.23"/><rect x="79.53" y="36.348" transform="matrix(-0.5852 -0.8109 0.8109 -0.5852 110.2007 141.8527)" width="23.7" height="12.789"/></g></g><g id="SvgjsG1492" featureKey="nameFeature-0" transform="matrix(1.3581567504249208,0,0,1.3581567504249208,93.93560306049811,-2.6137669454295587)" fill="#000"><path d="M15.56 10.760000000000002 c4.24 0 7.64 1.4133 10.2 4.24 s3.84 6.44 3.84 10.84 c0 4.16 -1.24 7.6668 -3.72 10.52 l3.56 3.24 l-2.92 3.08 l-4.04 -3.68 c-1.9733 1.12 -4.28 1.68 -6.92 1.68 c-4.2132 0 -7.6068 -1.4 -10.18 -4.2 s-3.86 -6.3468 -3.86 -10.64 c0 -4.4268 1.28 -8.0468 3.84 -10.86 s5.96 -4.22 10.2 -4.22 z M7.8 25.84 c0 2.9067 0.68676 5.2268 2.0601 6.96 s3.2866 2.6 5.74 2.6 c1.36 0 2.1867 -0.13332 2.48 -0.4 l-2.68 -2.44 l2.92 -3.12 l3.24 2.96 c1.1733 -1.52 1.76 -3.7067 1.76 -6.56 c0 -3.04 -0.69332 -5.4332 -2.08 -7.18 s-3.2934 -2.62 -5.72 -2.62 c-2.3733 0 -4.2532 0.86668 -5.64 2.6 s-2.08 4.1332 -2.08 7.2 z M38.96 19.32 l0 11.72 c0 1.6 0.25332 2.84 0.76 3.72 s1.4667 1.32 2.88 1.32 c1.5733 0 2.7 -0.46668 3.38 -1.4 s1.02 -2.4266 1.02 -4.48 l0 -10.88 l5.68 0 l0 20.68 l-5.4 0 l0 -2.88 l-0.12 0 c-1.4133 2.2933 -3.5333 3.44 -6.36 3.44 c-2.6933 0 -4.62 -0.68668 -5.78 -2.06 s-1.74 -3.4866 -1.74 -6.34 l0 -12.84 l5.68 0 z M62.84 11.440000000000001 l0 4.68 l-5.68 0 l0 -4.68 l5.68 0 z M62.84 19.32 l0 20.68 l-5.68 0 l0 -20.68 l5.68 0 z M77.24 18.76 c2.8 0 5.08 0.71328 6.84 2.14 s2.72 3.3267 2.88 5.7 l-5.56 0 c-0.37332 -2.3733 -1.7733 -3.56 -4.2 -3.56 c-1.4933 0 -2.6733 0.61332 -3.54 1.84 s-1.3 2.8534 -1.3 4.88 c0 1.9467 0.41332 3.52 1.24 4.72 s1.9867 1.8 3.48 1.8 c2.5867 0 4.0932 -1.4 4.52 -4.2 l5.48 0 c-0.37332 2.7467 -1.4333 4.8468 -3.18 6.3 s-4.0068 2.18 -6.78 2.18 c-3.0667 0 -5.5732 -0.98 -7.52 -2.94 s-2.92 -4.5132 -2.92 -7.66 c0 -3.4133 0.96 -6.1332 2.88 -8.16 s4.48 -3.04 7.68 -3.04 z M96.48 11.440000000000001 l0 15.32 l7.16 -7.44 l6.72 0 l-7.8 7.6 l8.68 13.08 l-6.88 0 l-5.68 -9.24 l-2.2 2.12 l0 7.12 l-5.68 0 l0 -28.56 l5.68 0 z M126.08000000000001 11.440000000000001 c4.0532 0 7.24 1.2533 9.56 3.76 s3.48 5.96 3.48 10.36 c0 4.56 -1.1667 8.1068 -3.5 10.64 s-5.46 3.8 -9.38 3.8 l-12.4 0 l0 -28.56 l12.24 0 z M125.68 34.72 c2.2667 0 4.0268 -0.74668 5.28 -2.24 s1.88 -3.6133 1.88 -6.36 c0 -3.1467 -0.67332 -5.5 -2.02 -7.06 s-3.42 -2.34 -6.22 -2.34 l-4.48 0 l0 18 l5.56 0 z M154.96000000000004 18.76 c0.48 0 0.89336 0.06668 1.24 0.2 l0 5.28 c-0.61332 -0.13332 -1.2933 -0.2 -2.04 -0.2 c-3.7333 0 -5.6 2.2133 -5.6 6.64 l0 9.32 l-5.68 0 l0 -20.68 l5.4 0 l0 3.84 l0.08 0 c0.56 -1.3333 1.4467 -2.4 2.66 -3.2 s2.5266 -1.2 3.94 -1.2 z M167.76000000000002 18.76 c3.3067 0 5.92 1.0067 7.84 3.02 s2.88 4.6468 2.88 7.9 c0 3.28 -0.98 5.9132 -2.94 7.9 s-4.5532 2.98 -7.78 2.98 c-3.28 0 -5.88 -1.0067 -7.8 -3.02 s-2.88 -4.6332 -2.88 -7.86 c0 -3.3333 0.98 -5.9868 2.94 -7.96 s4.54 -2.96 7.74 -2.96 z M162.76000000000002 29.68 c0 2.1067 0.42668 3.7333 1.28 4.88 s2.0933 1.72 3.72 1.72 c1.68 0 2.94 -0.58668 3.78 -1.76 s1.26 -2.7866 1.26 -4.84 c0 -2.1333 -0.43332 -3.7733 -1.3 -4.92 s-2.1267 -1.72 -3.78 -1.72 c-1.6 0 -2.8267 0.57332 -3.68 1.72 s-1.28 2.7867 -1.28 4.92 z M193.80000000000004 18.76 c2.8533 0 5.1332 1 6.84 3 s2.56 4.7068 2.56 8.12 c0 3.12 -0.82 5.68 -2.46 7.68 s-3.8467 3 -6.62 3 c-2.72 0 -4.7868 -1.04 -6.2 -3.12 l-0.08 0 l0 9.84 l-5.68 0 l0 -27.96 l5.4 0 l0 2.64 l0.08 0 c1.36 -2.1333 3.4133 -3.2 6.16 -3.2 z M187.64000000000001 29.72 c0 2.0267 0.42672 3.6267 1.28 4.8 s2.08 1.76 3.68 1.76 c1.6533 0 2.8866 -0.58668 3.7 -1.76 s1.22 -2.7733 1.22 -4.8 c0 -2.08 -0.44 -3.7133 -1.32 -4.9 s-2.1067 -1.78 -3.68 -1.78 s-2.78 0.58668 -3.62 1.76 s-1.26 2.8133 -1.26 4.92 z"/></g>
			</g>
		</svg>
	